<svg xmlns="http://www.w3.org/2000/svg" viewBox="0 0 500 500">
    <path d="M 1.072 182.043 L 498.928 182.043 C 501.645 204.702 499.199 227.862 491.592 249.619 L 8.408 249.619 C 0.801 227.862 -1.645 204.702 1.072 182.043 Z" style="stroke: rgb(0, 0, 0);stroke-width: 0px;fill: #ffffff;"/>
    <path d="M 43.934 93.935 C 100.532 37.337 191.104 35.422 250 88.191 C 308.898 35.424 399.47 37.339 456.066 93.935 C 462.974 100.843 469.067 108.257 474.346 116.058 L 25.654 116.058 C 30.933 108.257 37.026 100.843 43.934 93.935 Z" style="fill-opacity: 1;fill-rule: nonzero;stroke: none;fill: #96e0fb;" id="path26"/>
    <path d="M 1.007 182.597 C 3.77 158.802 12.222 135.543 26.362 115.021 L 473.638 115.021 C 487.778 135.543 496.23 158.802 498.993 182.597 Z" style="fill-opacity: 1;fill-rule: nonzero;stroke: none;fill: #f9c1cc;" id="path-1"/>
    <path d="M 43.934 306.066 C 27.335 289.467 15.44 269.947 8.248 249.16 L 491.752 249.16 C 484.56 269.947 472.665 289.467 456.066 306.066 L 445.396 316.736 L 54.604 316.736 Z" style="fill-opacity: 1;fill-rule: nonzero;stroke: none;fill: #f6b4c2;" id="path-3"/>
    <path d="M 121.289 383.421 L 53.713 315.845 L 446.287 315.845 L 378.711 383.421 Z" style="fill-opacity: 1;fill-rule: nonzero;stroke: none;fill: #63d0fb;" id="path-4"/>
    <path d="M 250 450 C 211.611 450 173.225 435.355 143.934 406.066 L 120.554 382.686 L 379.446 382.686 L 356.066 406.066 C 326.777 435.355 288.389 450 250 450 Z" style="fill-opacity: 1;fill-rule: nonzero;stroke: none;fill: #f9c1cc;" id="path-5"/>
    <path d="M 220.519 176.636 C 220.519 183.149 215.24 188.428 208.727 188.428 C 202.213 188.428 196.934 183.149 196.934 176.636 C 196.934 170.122 202.213 164.843 208.727 164.843 C 215.24 164.843 220.519 170.122 220.519 176.636" style="fill-opacity: 1; fill-rule: nonzero; fill: rgb(117, 7, 135); stroke: rgb(117, 7, 135);" id="path30"/>
    <path d="M 220.519 176.636 C 220.519 183.149 215.24 188.428 208.727 188.428 C 202.213 188.428 196.934 183.149 196.934 176.636 C 196.934 170.122 202.213 164.843 208.727 164.843 C 215.24 164.843 220.519 170.122 220.519 176.636 Z" style="stroke-linecap: butt;stroke-linejoin: miter;stroke-miterlimit: 10;stroke-dasharray: none;stroke-opacity: 1;stroke-width: 10px;fill: rgb(1,1,1);stroke: rgb(1,1,1);" id="path34"/>
    <path d="M 303.066 176.636 C 303.066 183.149 297.787 188.428 291.274 188.428 C 284.76 188.428 279.481 183.149 279.481 176.636 C 279.481 170.122 284.76 164.843 291.274 164.843 C 297.787 164.843 303.066 170.122 303.066 176.636" style="fill-opacity: 1; fill-rule: nonzero; fill: rgb(117, 7, 135); stroke: rgb(117, 7, 135);" id="path38"/>
    <path d="M 303.066 176.636 C 303.066 183.149 297.787 188.428 291.274 188.428 C 284.76 188.428 279.481 183.149 279.481 176.636 C 279.481 170.122 284.76 164.843 291.274 164.843 C 297.787 164.843 303.066 170.122 303.066 176.636 Z" style="stroke-linecap: butt;stroke-linejoin: miter;stroke-miterlimit: 10;stroke-dasharray: none;stroke-opacity: 1;stroke-width: 10px;fill: rgb(1,1,1);stroke: rgb(1, 1, 1);" id="path42"/>
    <path d="M 208.749 223.818 C 227.624 254.62 272.375 254.62 291.251 223.818" style="stroke-linecap: round;stroke-linejoin: round;stroke-miterlimit: 10;stroke-dasharray: none;stroke-opacity: 1;stroke-width: 20px;fill: #ffffff;stroke: #010101;" id="path46"/>
    <path d="M 438.679 212.013 C 438.679 179.449 412.281 153.051 379.717 153.051 C 347.153 153.051 320.755 179.449 320.755 212.013 C 320.755 244.577 347.153 270.975 379.717 270.975 C 412.281 270.975 438.679 244.577 438.679 212.013" style="fill-opacity: 1;fill-rule: nonzero;stroke: none;fill: #f82a50;" id="path50"/>
    <path d="M 179.245 212.013 C 179.245 179.449 152.847 153.051 120.283 153.051 C 87.719 153.051 61.321 179.449 61.321 212.013 C 61.321 244.577 87.719 270.975 120.283 270.975 C 152.847 270.975 179.245 244.577 179.245 212.013" style="fill-opacity: 1;fill-rule: nonzero;stroke: none;fill: #f82a50;" id="path54"/>
</svg>